<svg width="40" height="40" viewBox="0 0 40 40" fill="none" xmlns="http://www.w3.org/2000/svg">
<g clip-path="url(#clip0_275_2036)">
<path d="M39.1667 18.3333C38.9457 18.3333 38.7337 18.2455 38.5774 18.0893C38.4211 17.933 38.3333 17.721 38.3333 17.5C38.3333 8.77 31.23 1.66667 22.5 1.66667C22.279 1.66667 22.067 1.57887 21.9107 1.42259C21.7545 1.26631 21.6667 1.05435 21.6667 0.833333C21.6667 0.61232 21.7545 0.400358 21.9107 0.244078C22.067 0.0877974 22.279 0 22.5 0C32.15 0 40 7.85 40 17.5C40 17.721 39.9122 17.933 39.7559 18.0893C39.5996 18.2455 39.3877 18.3333 39.1667 18.3333ZM33.3333 17.5C33.3333 11.5267 28.4733 6.66667 22.5 6.66667C22.279 6.66667 22.067 6.75446 21.9107 6.91074C21.7545 7.06702 21.6667 7.27899 21.6667 7.5C21.6667 7.72101 21.7545 7.93297 21.9107 8.08926C22.067 8.24554 22.279 8.33333 22.5 8.33333C27.555 8.33333 31.6667 12.445 31.6667 17.5C31.6667 17.721 31.7545 17.933 31.9107 18.0893C32.067 18.2455 32.279 18.3333 32.5 18.3333C32.721 18.3333 32.933 18.2455 33.0893 18.0893C33.2455 17.933 33.3333 17.721 33.3333 17.5ZM37.0567 37.1183L38.6867 35.2433C39.5333 34.3967 40 33.27 40 32.0733C40 30.8767 39.5333 29.7483 38.605 28.8317L34.5283 25.71C33.6872 24.8712 32.5481 24.3998 31.3602 24.3988C30.1723 24.3979 29.0324 24.8675 28.19 25.705L25.6367 28.195C19.5033 25.6967 14.5067 20.695 11.8133 14.3567L14.2933 11.815C16.0417 10.0667 16.0417 7.22167 14.365 5.555L11.1 1.31667C9.405 -0.378333 6.41167 -0.338333 4.8 1.27833L2.84333 2.985C1.00833 4.81 0 7.28833 0 9.96C0 22.875 17.125 40 30.04 40C32.7117 40 35.1883 38.9917 37.0567 37.1183ZM9.84833 2.41L13.1133 6.64833C13.6417 7.17893 13.9378 7.89759 13.9365 8.64638C13.9353 9.39517 13.6368 10.1128 13.1067 10.6417L10.2367 13.585C10.1239 13.7008 10.0472 13.8469 10.0158 14.0055C9.98448 14.164 9.99982 14.3283 10.06 14.4783C12.9417 21.6533 18.5817 27.2917 25.5367 29.945C25.685 30.0018 25.8465 30.0151 26.0021 29.9832C26.1577 29.9513 26.301 29.8756 26.415 29.765L29.3583 26.895L29.365 26.8867C30.43 25.82 32.205 25.7517 33.4317 26.9583L37.5083 30.08C38.6067 31.1783 38.6067 32.965 37.47 34.1067L35.8383 35.9817C34.325 37.4983 32.265 38.3333 30.04 38.3333C18.1067 38.3333 1.66667 21.8933 1.66667 9.96C1.66667 7.735 2.50167 5.675 3.97833 4.2L5.93667 2.49167C6.49667 1.93167 7.235 1.65833 7.96167 1.65833C8.66589 1.65024 9.34473 1.92105 9.85 2.41167L9.84833 2.41Z" fill="#E08322"/>
</g>
<defs>
<clipPath id="clip0_275_2036">
<rect width="40" height="40" fill="white"/>
</clipPath>
</defs>
</svg>
