<svg width="40" height="40" viewBox="0 0 40 40" fill="none" xmlns="http://www.w3.org/2000/svg">
<g clip-path="url(#clip0_275_2041)">
<path d="M32.5 3.33398H12.5C8.35 3.33398 5 6.68398 5 10.834V25.834C5 29.984 8.35 33.334 12.5 33.334H32.5C36.65 33.334 40 29.984 40 25.834V10.834C40 6.68398 36.65 3.33398 32.5 3.33398ZM32.5 5.00065C34.0833 5.00065 35.5333 5.63398 36.5833 6.66732L26.6333 16.6173C26.0922 17.16 25.4493 17.5907 24.7415 17.8845C24.0336 18.1783 23.2747 18.3295 22.5083 18.3295C21.7419 18.3295 20.9831 18.1783 20.2752 17.8845C19.5674 17.5907 18.9245 17.16 18.3833 16.6173L8.41667 6.66732C9.46667 5.63398 10.9167 5.00065 12.5 5.00065H32.5ZM38.3333 25.834C38.3333 29.0506 35.7167 31.6673 32.5 31.6673H12.5C9.28333 31.6673 6.66667 29.0506 6.66667 25.834V10.834C6.66667 9.80065 6.93333 8.85065 7.4 8.00065L17.2 17.8007C18.6667 19.2673 20.5833 20.0007 22.5 20.0007C24.4167 20.0007 26.3333 19.2673 27.8 17.8007L37.6 8.00065C38.0667 8.83398 38.3333 9.80065 38.3333 10.834V25.834ZM30 37.5006C30 37.9673 29.6333 38.334 29.1667 38.334H7.5C3.36667 38.334 0 34.9673 0 30.834V12.5007C0 12.034 0.366667 11.6673 0.833333 11.6673C1.3 11.6673 1.66667 12.034 1.66667 12.5007V30.834C1.66667 34.0506 4.28333 36.6673 7.5 36.6673H29.1667C29.6333 36.6673 30 37.034 30 37.5006Z" fill="#E08322"/>
</g>
<defs>
<clipPath id="clip0_275_2041">
<rect width="40" height="40" fill="white"/>
</clipPath>
</defs>
</svg>
