<svg width="547" height="70" viewBox="0 0 547 70" fill="none" xmlns="http://www.w3.org/2000/svg">
<path d="M73.0128 35.0234C73.0128 54.3078 56.6373 70 36.5005 70C29.298 70 22.572 67.9884 16.9167 64.5176C14.3784 62.9757 12.0463 61.1231 10.011 59.0361L18.4247 51.4066L28.4856 42.2953L36.5005 35.0234L26.245 38.9865C25.7292 37.7636 25.4453 36.4175 25.4453 35.0234C25.4453 29.1833 30.4061 24.4295 36.5005 24.4295C42.6066 24.4295 47.5674 29.1833 47.5674 35.0234C47.5674 40.8625 42.6066 45.6164 36.5005 45.6164C34.3227 45.6164 32.2873 45.0111 30.5731 43.9614L23.1398 55.1475C26.9915 57.5178 31.578 58.8884 36.5005 58.8884C50.2345 58.8884 61.4173 48.1844 61.4173 35.0234C61.4173 21.8615 50.2345 11.1575 36.5005 11.1575C22.7666 11.1575 11.5954 21.8615 11.5954 35.0234C11.5954 38.1713 12.2399 41.1835 13.4128 43.937L2.65427 48.0977C0.941113 44.0603 0 39.6397 0 35.0234C0 15.7381 16.3755 0.0458527 36.5005 0.0458527C56.6373 0.0458527 73.0128 15.7381 73.0128 35.0234Z" fill="#E08322"/>
<path d="M134.497 35.0623C134.497 38.6158 133.935 41.8824 132.809 44.862C131.683 47.8196 130.094 50.3689 128.042 52.5098C125.989 54.6508 123.517 56.3172 120.625 57.509C117.756 58.6788 114.578 59.2637 111.091 59.2637C107.603 59.2637 104.425 58.6788 101.556 57.509C98.6864 56.3172 96.2254 54.6508 94.1727 52.5098C92.1201 50.3689 90.5309 47.8196 89.4053 44.862C88.2796 41.8824 87.7168 38.6158 87.7168 35.0623C87.7168 31.5087 88.2796 28.2532 89.4053 25.2956C90.5309 22.3159 92.1201 19.7556 94.1727 17.6147C96.2254 15.4517 98.6864 13.7742 101.556 12.5824C104.425 11.3905 107.603 10.7946 111.091 10.7946C114.578 10.7946 117.756 11.3905 120.625 12.5824C123.517 13.7742 125.989 15.4517 128.042 17.6147C130.094 19.7556 131.683 22.3159 132.809 25.2956C133.935 28.2532 134.497 31.5087 134.497 35.0623ZM127.909 35.0623C127.909 32.1488 127.512 29.5333 126.717 27.2158C125.923 24.8983 124.797 22.945 123.34 21.3558C121.884 19.7446 120.118 18.5086 118.043 17.6478C115.968 16.787 113.651 16.3566 111.091 16.3566C108.552 16.3566 106.246 16.787 104.171 17.6478C102.096 18.5086 100.32 19.7446 98.8409 21.3558C97.3841 22.945 96.2585 24.8983 95.4639 27.2158C94.6693 29.5333 94.2721 32.1488 94.2721 35.0623C94.2721 37.9757 94.6693 40.5912 95.4639 42.9087C96.2585 45.2041 97.3841 47.1575 98.8409 48.7687C100.32 50.3579 102.096 51.5828 104.171 52.4436C106.246 53.2823 108.552 53.7017 111.091 53.7017C113.651 53.7017 115.968 53.2823 118.043 52.4436C120.118 51.5828 121.884 50.3579 123.34 48.7687C124.797 47.1575 125.923 45.2041 126.717 42.9087C127.512 40.5912 127.909 37.9757 127.909 35.0623Z" fill="white"/>
<path d="M193.05 11.3243V58.7671H187.422V23.9051C187.422 23.4416 187.433 22.945 187.455 22.4153C187.499 21.8855 187.543 21.3448 187.587 20.793L171.298 50.4572C170.791 51.4504 170.018 51.947 168.981 51.947H168.054C167.016 51.947 166.244 51.4504 165.736 50.4572L149.116 20.6606C149.249 21.8304 149.315 22.9119 149.315 23.9051V58.7671H143.687V11.3243H148.421C148.995 11.3243 149.436 11.3795 149.745 11.4898C150.054 11.6002 150.352 11.9092 150.639 12.4168L167.028 41.6175C167.292 42.1472 167.546 42.699 167.789 43.2729C168.054 43.8467 168.297 44.4316 168.517 45.0276C168.738 44.4316 168.97 43.8467 169.213 43.2729C169.455 42.6769 169.72 42.1141 170.007 41.5844L186.097 12.4168C186.362 11.9092 186.649 11.6002 186.958 11.4898C187.289 11.3795 187.742 11.3243 188.316 11.3243H193.05Z" fill="white"/>
<path d="M243.619 11.3243V58.7671H240.407C239.9 58.7671 239.469 58.6788 239.116 58.5023C238.785 58.3257 238.454 58.0277 238.123 57.6084L210.677 21.8524C210.721 22.4042 210.754 22.945 210.776 23.4747C210.798 24.0044 210.809 24.501 210.809 24.9645V58.7671H205.181V11.3243H208.492C208.779 11.3243 209.022 11.3464 209.22 11.3905C209.419 11.4126 209.595 11.4678 209.75 11.556C209.904 11.6223 210.059 11.7326 210.213 11.8871C210.368 12.0195 210.534 12.1961 210.71 12.4168L238.156 48.1397C238.112 47.5658 238.068 47.014 238.024 46.4843C238.002 45.9325 237.991 45.4138 237.991 44.9282V11.3243H243.619Z" fill="white"/>
<path d="M262.17 58.7671H255.747V11.3243H262.17V58.7671Z" fill="white"/>
<path d="M327.145 10.5297V58.7671H317.279V31.0232C317.279 30.3831 317.29 29.6878 317.312 28.9374C317.356 28.187 317.422 27.4255 317.511 26.653L304.698 51.4504C304.301 52.2229 303.76 52.8078 303.076 53.2051C302.414 53.6024 301.652 53.801 300.792 53.801H299.269C298.408 53.801 297.635 53.6024 296.951 53.2051C296.289 52.8078 295.759 52.2229 295.362 51.4504L282.549 26.5868C282.616 27.3814 282.671 28.1649 282.715 28.9374C282.759 29.6878 282.781 30.3831 282.781 31.0232V58.7671H272.915V10.5297H281.457C281.942 10.5297 282.362 10.5408 282.715 10.5628C283.09 10.5849 283.421 10.6511 283.708 10.7615C283.995 10.8718 284.249 11.0484 284.47 11.2912C284.712 11.5119 284.944 11.8319 285.165 12.2513L297.58 36.7176C298.022 37.5563 298.441 38.4282 298.838 39.3331C299.258 40.238 299.655 41.1651 300.03 42.1141C300.405 41.143 300.792 40.1939 301.189 39.2669C301.608 38.3399 302.05 37.457 302.513 36.6183L314.895 12.2513C315.116 11.8319 315.337 11.5119 315.557 11.2912C315.8 11.0484 316.065 10.8718 316.352 10.7615C316.639 10.6511 316.959 10.5849 317.312 10.5628C317.687 10.5408 318.118 10.5297 318.603 10.5297H327.145Z" fill="white"/>
<path d="M361.971 40.3263L357.502 27.1165C357.171 26.2778 356.818 25.2956 356.442 24.1699C356.067 23.0222 355.692 21.7862 355.317 20.4619C354.986 21.8083 354.633 23.0553 354.257 24.2031C353.882 25.3508 353.529 26.344 353.198 27.1827L348.761 40.3263H361.971ZM379.75 58.7671H371.076C370.105 58.7671 369.321 58.5464 368.725 58.105C368.129 57.6415 367.677 57.0566 367.368 56.3503L364.521 47.941H346.179L343.332 56.3503C343.089 56.9683 342.648 57.5311 342.008 58.0388C341.39 58.5243 340.617 58.7671 339.69 58.7671H330.95L349.622 10.5297H361.077L379.75 58.7671Z" fill="white"/>
<path d="M422.815 10.5297L403.481 58.7671H393.35L374.015 10.5297H383.02C383.991 10.5297 384.775 10.7615 385.371 11.225C385.967 11.6664 386.419 12.2403 386.728 12.9466L396.065 38.7703C396.506 39.8959 396.936 41.1319 397.356 42.4783C397.775 43.8026 398.172 45.1931 398.548 46.6498C398.857 45.1931 399.199 43.8026 399.574 42.4783C399.971 41.1319 400.391 39.8959 400.832 38.7703L410.102 12.9466C410.345 12.3285 410.775 11.7768 411.393 11.2912C412.033 10.7835 412.817 10.5297 413.744 10.5297H422.815Z" fill="white"/>
<path d="M437.875 19.1376V30.3941H453.038V38.671H437.875V50.1592H457.673V58.7671H426.619V10.5297H457.673V19.1376H437.875Z" fill="white"/>
<path d="M506.688 10.5297V58.7671H500.861C500 58.7671 499.272 58.6347 498.676 58.3698C498.102 58.0829 497.528 57.5973 496.955 56.9131L474.21 28.1428C474.298 29.0036 474.353 29.8423 474.375 30.659C474.42 31.4536 474.442 32.204 474.442 32.9103V58.7671H464.576V10.5297H470.469C470.954 10.5297 471.363 10.5518 471.694 10.5959C472.025 10.6401 472.323 10.7284 472.588 10.8608C472.852 10.9711 473.106 11.1367 473.349 11.3574C473.592 11.5781 473.868 11.8761 474.177 12.2513L497.12 41.2202C497.01 40.2932 496.933 39.3993 496.888 38.5385C496.844 37.6557 496.822 36.828 496.822 36.0555V10.5297H506.688Z" fill="white"/>
<path d="M542.699 20.3295C542.368 20.8592 542.014 21.2565 541.639 21.5214C541.286 21.7862 540.823 21.9186 540.249 21.9186C539.741 21.9186 539.189 21.7641 538.593 21.4551C538.019 21.1241 537.357 20.7599 536.607 20.3626C535.878 19.9653 535.04 19.6122 534.091 19.3032C533.142 18.9721 532.06 18.8066 530.846 18.8066C528.749 18.8066 527.182 19.259 526.145 20.164C525.13 21.0468 524.622 22.2497 524.622 23.7727C524.622 24.7438 524.931 25.5494 525.549 26.1895C526.167 26.8296 526.973 27.3814 527.966 27.8449C528.981 28.3084 530.129 28.7388 531.409 29.136C532.711 29.5113 534.036 29.9417 535.382 30.4272C536.728 30.8907 538.042 31.4425 539.322 32.0826C540.624 32.7227 541.772 33.5393 542.765 34.5325C543.78 35.5258 544.597 36.7397 545.215 38.1744C545.833 39.5869 546.142 41.2975 546.142 43.306C546.142 45.5352 545.756 47.621 544.983 49.5633C544.211 51.5056 543.085 53.2051 541.606 54.6618C540.149 56.0965 538.339 57.2331 536.176 58.0719C534.036 58.8885 531.597 59.2968 528.86 59.2968C527.359 59.2968 525.825 59.1423 524.258 58.8333C522.713 58.5243 521.212 58.0939 519.755 57.5421C518.298 56.9683 516.93 56.2951 515.65 55.5226C514.37 54.7501 513.255 53.8893 512.306 52.9402L515.617 47.7093C515.882 47.334 516.224 47.025 516.643 46.7823C517.085 46.5174 517.559 46.385 518.067 46.385C518.729 46.385 519.391 46.5947 520.053 47.014C520.737 47.4334 521.499 47.8969 522.338 48.4045C523.198 48.9122 524.181 49.3757 525.284 49.795C526.388 50.2144 527.69 50.4241 529.191 50.4241C531.221 50.4241 532.8 49.9826 533.925 49.0998C535.051 48.1948 535.614 46.7712 535.614 44.8289C535.614 43.7033 535.305 42.7873 534.687 42.081C534.069 41.3747 533.252 40.7898 532.237 40.3263C531.243 39.8628 530.107 39.4545 528.827 39.1014C527.546 38.7482 526.233 38.362 524.887 37.9426C523.54 37.5012 522.227 36.9715 520.947 36.3534C519.667 35.7134 518.519 34.8857 517.504 33.8704C516.511 32.833 515.705 31.5529 515.087 30.0299C514.469 28.4849 514.16 26.5868 514.16 24.3355C514.16 22.5256 514.524 20.7599 515.253 19.0383C515.981 17.3167 517.051 15.7827 518.464 14.4364C519.877 13.09 521.609 12.0195 523.662 11.225C525.715 10.4083 528.065 10 530.714 10C532.193 10 533.627 10.1214 535.018 10.3642C536.43 10.5849 537.766 10.927 539.024 11.3905C540.282 11.8319 541.452 12.3727 542.533 13.0128C543.637 13.6308 544.619 14.3371 545.48 15.1316L542.699 20.3295Z" fill="white"/>
</svg>
