<svg width="804" height="770" viewBox="0 0 804 770" fill="none" xmlns="http://www.w3.org/2000/svg">
<path d="M804 385.006C804 597.272 623.677 770 401.936 770C322.623 770 248.557 747.858 186.283 709.654C158.331 692.683 132.651 672.29 110.238 649.318L202.888 565.338L313.677 465.049L401.936 385.006L289.004 428.628C283.325 415.168 280.198 400.35 280.198 385.006C280.198 320.722 334.825 268.396 401.936 268.396C469.175 268.396 523.802 320.722 523.802 385.006C523.802 449.278 469.175 501.604 401.936 501.604C377.953 501.604 355.54 494.941 336.664 483.388L254.811 606.515C297.224 632.605 347.73 647.692 401.936 647.692C553.171 647.692 676.314 529.871 676.314 385.006C676.314 240.129 553.171 122.308 401.936 122.308C250.7 122.308 127.686 240.129 127.686 385.006C127.686 419.654 134.783 452.811 147.699 483.119L29.2282 528.917C10.3633 484.476 0 435.818 0 385.006C0 172.728 180.323 0 401.936 0C623.677 0 804 172.728 804 385.006Z" fill="#E08322" fill-opacity="0.1"/>
</svg>
