<svg width="804" height="770" viewBox="0 0 804 770" fill="none" xmlns="http://www.w3.org/2000/svg">
<path d="M186.543 709.226L186.545 709.227C248.742 747.384 322.717 769.5 401.936 769.5C623.422 769.5 803.5 596.976 803.5 385.006C803.5 173.024 623.422 0.5 401.936 0.5C180.579 0.5 0.5 173.024 0.5 385.006C0.5 435.579 10.7801 484.016 29.4996 528.276L147.036 482.839C134.223 452.6 127.186 419.542 127.186 385.006C127.186 239.833 250.445 121.808 401.936 121.808C553.426 121.808 676.814 239.833 676.814 385.006C676.814 530.167 553.426 648.192 401.936 648.192C347.636 648.192 297.04 633.079 254.549 606.941L254.107 606.67L254.394 606.238L336.247 483.111L336.514 482.71L336.925 482.962C355.724 494.468 378.047 501.104 401.936 501.104C468.919 501.104 523.302 448.981 523.302 385.006C523.302 321.019 468.919 268.896 401.936 268.896C335.081 268.896 280.698 321.018 280.698 385.006C280.698 400.112 283.742 414.706 289.277 427.986L401.755 384.539L402.271 385.376L314.013 465.419L314.012 465.419L203.224 565.709L203.224 565.709L110.959 649.34C133.256 672.13 158.777 692.368 186.543 709.226Z" stroke="#E08322"/>
</svg>
