<svg width="50" height="50" viewBox="0 0 50 50" fill="none" xmlns="http://www.w3.org/2000/svg">
<g clip-path="url(#clip0_275_75)">
<path d="M-0.00041502 11.4577C-0.00041502 7.43685 3.27042 4.16602 7.29125 4.16602H42.7079C46.7288 4.16602 49.9996 7.43685 49.9996 11.4577C49.9996 12.041 49.5413 12.4993 48.9579 12.4993C48.3746 12.4993 47.9163 12.041 47.9163 11.4577C47.9163 10.0763 47.3675 8.75159 46.3908 7.77483C45.414 6.79808 44.0893 6.24935 42.7079 6.24935H7.29125C5.90992 6.24935 4.58516 6.79808 3.6084 7.77483C2.63165 8.75159 2.08292 10.0763 2.08292 11.4577C2.08292 12.041 1.62459 12.4993 1.04125 12.4993C0.457918 12.4993 -0.00041502 12.041 -0.00041502 11.4577ZM49.3121 39.6452C49.1822 39.5986 49.0444 39.5785 48.9066 39.5859C48.7689 39.5932 48.634 39.628 48.5098 39.6881C48.3857 39.7483 48.2747 39.8326 48.1836 39.9361C48.0924 40.0396 48.0228 40.1603 47.9788 40.291C47.2496 42.3744 45.2704 43.7702 43.0621 43.7702H6.93709C4.72875 43.7702 2.74959 42.3744 2.02042 40.291C1.92383 40.0326 1.73141 39.8213 1.48311 39.701C1.23482 39.5808 0.949739 39.5608 0.687085 39.6452C0.145418 39.8327 -0.146248 40.4369 0.0412516 40.9785C1.06209 43.8952 3.83292 45.8327 6.91625 45.8327H43.0621C46.1454 45.8327 48.9163 43.8744 49.9371 40.9785C49.9836 40.8487 50.0038 40.7108 49.9964 40.5731C49.989 40.4353 49.9543 40.3004 49.8941 40.1762C49.834 40.0521 49.7497 39.9412 49.6462 39.85C49.5427 39.7588 49.422 39.6892 49.2913 39.6452H49.3121ZM-0.00041502 34.3744V19.791C-0.00041502 18.4097 0.548319 17.0849 1.52507 16.1082C2.50182 15.1314 3.82658 14.5827 5.20792 14.5827H8.33292C11.7704 14.5827 14.5829 17.3952 14.5829 20.8327C14.5829 24.2702 11.7704 27.0827 8.33292 27.0827H2.08292V34.3744C2.08292 34.9577 1.62459 35.416 1.04125 35.416C0.457918 35.416 -0.00041502 34.9577 -0.00041502 34.3744ZM2.08292 24.9994H8.33292C10.6246 24.9994 12.4996 23.1243 12.4996 20.8327C12.4996 18.541 10.6246 16.666 8.33292 16.666H5.20792C3.47875 16.666 2.08292 18.0618 2.08292 19.791V24.9994ZM26.7288 26.8327L31.1038 33.8118C31.4163 34.291 31.2704 34.9369 30.7704 35.2494C30.6578 35.3248 30.5311 35.3766 30.3979 35.4018C30.2646 35.4269 30.1277 35.4248 29.9954 35.3956C29.863 35.3664 29.7379 35.3107 29.6276 35.2319C29.5174 35.153 29.4242 35.0527 29.3538 34.9369L24.4579 27.0827H18.7913V34.3744C18.7913 34.9577 18.3329 35.416 17.7496 35.416C17.1663 35.416 16.7079 34.9577 16.7079 34.3744V19.791C16.7079 18.4097 17.2567 17.0849 18.2334 16.1082C19.2102 15.1314 20.5349 14.5827 21.9163 14.5827H25.0413C28.4788 14.5827 31.2913 17.3952 31.2913 20.8327C31.2899 22.1877 30.8483 23.5055 30.0329 24.5877C29.2175 25.6699 28.0725 26.4578 26.7704 26.8327H26.7288ZM29.1663 20.8327C29.1663 18.541 27.2913 16.666 24.9996 16.666H21.8746C20.1454 16.666 18.7496 18.0618 18.7496 19.791V24.9994H24.9996C27.2913 24.9994 29.1663 23.1243 29.1663 20.8327ZM49.9996 21.8743V28.1244C49.9996 32.1452 46.7288 35.416 42.7079 35.416C38.6871 35.416 35.4163 32.1452 35.4163 28.1244V21.8743C35.4163 17.8535 38.6871 14.5827 42.7079 14.5827C46.7288 14.5827 49.9996 17.8535 49.9996 21.8743ZM47.9163 21.8743C47.9163 20.493 47.3675 19.1683 46.3908 18.1915C45.414 17.2148 44.0893 16.666 42.7079 16.666C41.3266 16.666 40.0018 17.2148 39.0251 18.1915C38.0483 19.1683 37.4996 20.493 37.4996 21.8743V28.1244C37.4996 29.5057 38.0483 30.8304 39.0251 31.8072C40.0018 32.784 41.3266 33.3327 42.7079 33.3327C44.0893 33.3327 45.414 32.784 46.3908 31.8072C47.3675 30.8304 47.9163 29.5057 47.9163 28.1244V21.8743Z" fill="#E08322"/>
</g>
<defs>
<clipPath id="clip0_275_75">
<rect width="50" height="50" fill="white"/>
</clipPath>
</defs>
</svg>
