<svg width="50" height="50" viewBox="0 0 50 50" fill="none" xmlns="http://www.w3.org/2000/svg">
<g clip-path="url(#clip0_275_72)">
<path d="M47.9167 25H50C50 38.7854 38.7854 50 25 50C15.0208 50 6.02708 44.0354 2.08333 34.9896V43.75H0V34.3937C0.000551087 33.5605 0.331658 32.7615 0.920655 32.1721C1.50965 31.5827 2.30842 31.2511 3.14167 31.25H12.5V33.3333H3.66458C7.08333 42.0833 15.5542 47.9167 25 47.9167C37.6354 47.9167 47.9167 37.6354 47.9167 25ZM47.9167 6.25V15.0062C45.9668 10.5497 42.7612 6.7574 38.6916 4.09255C34.622 1.4277 29.8645 0.00562083 25 0C11.2146 0 0 11.2146 0 25H2.08333C2.08333 12.3646 12.3646 2.08333 25 2.08333C34.4458 2.08333 42.9187 7.91667 46.3354 16.6667H37.5V18.75H46.8562C47.6898 18.7494 48.4892 18.4181 49.0786 17.8286C49.6681 17.2392 49.9994 16.4399 50 15.6062V6.25H47.9167ZM35.4167 35.4167H14.5833V18.75C14.5833 16.4521 16.4521 14.5833 18.75 14.5833H31.25C33.5479 14.5833 35.4167 16.4521 35.4167 18.75V35.4167ZM33.3333 18.75C33.3333 18.1975 33.1138 17.6676 32.7231 17.2769C32.3324 16.8862 31.8025 16.6667 31.25 16.6667H18.75C17.6021 16.6667 16.6667 17.6 16.6667 18.75V33.3333H33.3333V18.75ZM21.875 22.9167H28.125V20.8333H21.875V22.9167Z" fill="#E08322"/>
</g>
<defs>
<clipPath id="clip0_275_72">
<rect width="50" height="50" fill="white"/>
</clipPath>
</defs>
</svg>
