<svg width="50" height="50" viewBox="0 0 50 50" fill="none" xmlns="http://www.w3.org/2000/svg">
<g clip-path="url(#clip0_275_78)">
<path d="M50 44.7917V50H35.4167V47.9167H47.9167V44.7917C47.9167 42.9917 46.6229 41.7062 44.7687 41.6667H34.8396C34.5895 40.9334 34.2501 40.2337 33.8292 39.5833H43.75V20.8333H33.3333V38.9708C32.7432 38.2124 32.0406 37.5485 31.25 37.0021V20.8312H29.1667V14.5812H31.25V18.7479H37.5V14.5812H39.5833V18.7479H45.8333V14.5812H47.9167V20.8312H45.8333V39.6937C48.2979 40.1729 50 42.1833 50 44.7917ZM31.25 44.7917V50H0V44.7917C0 42.1979 1.90833 40.0604 4.39167 39.6667C5.1625 36.8167 8.08542 25.45 8.30833 16.6667H6.25V14.5833H7.69583L4.39167 7.91458C4.05 6.97292 4.17708 6.05 4.68542 5.33333C5.19375 4.61667 6.01875 4.1875 6.89792 4.1875H14.5854V0H16.6688V4.1875H24.3937C24.8268 4.18858 25.2532 4.2933 25.6375 4.49292C26.0217 4.69253 26.3526 4.98123 26.6024 5.33489C26.8523 5.68854 27.0138 6.09687 27.0736 6.52573C27.1333 6.95459 27.0895 7.39153 26.9458 7.8L23.5917 14.5833H25.0021V16.6667H22.9437C23.175 25.4208 26.0917 36.8083 26.8604 39.6667C28.082 39.8598 29.1949 40.4816 29.9997 41.4207C30.8044 42.3599 31.2484 43.5549 31.2521 44.7917H31.25ZM10.0208 14.5833H21.2646L25.0292 6.9875C25.0792 6.82708 24.9583 6.6125 24.9021 6.53333C24.8458 6.45417 24.6833 6.26875 24.3917 6.26875H6.89583C6.79565 6.26822 6.69682 6.29186 6.60773 6.33767C6.51863 6.38348 6.4419 6.4501 6.38403 6.53188C6.32617 6.61367 6.28889 6.7082 6.27535 6.80746C6.26181 6.90672 6.27241 7.00779 6.30625 7.10208L10.0208 14.5833ZM10.3917 16.6667C10.1875 25.2562 7.55208 35.9021 6.57083 39.5833H24.6792C23.7021 35.9 21.0708 25.2333 20.8583 16.6667H10.3917ZM29.1646 44.7917C29.1646 43.0687 27.7625 41.6667 26.0396 41.6667H5.20833C3.48542 41.6667 2.08333 43.0687 2.08333 44.7917V47.9167H29.1667V44.7917H29.1646Z" fill="#E08322"/>
</g>
<defs>
<clipPath id="clip0_275_78">
<rect width="50" height="50" fill="white"/>
</clipPath>
</defs>
</svg>
