<svg width="50" height="50" viewBox="0 0 50 50" fill="none" xmlns="http://www.w3.org/2000/svg">
<g clip-path="url(#clip0_275_69)">
<path d="M48.1438 31.5292L29.7854 23.1979C28.8644 22.8813 27.8729 22.8302 26.9242 23.0505C25.9756 23.2708 25.108 23.7536 24.4208 24.4437C22.9771 25.8854 22.5396 27.9646 23.2875 30.0937L31.5042 48.1667C32 49.2562 33.0938 49.975 34.3104 49.9979H34.35C35.5396 49.9979 36.6104 49.3375 37.1458 48.2708L40.8458 40.8688L48.25 37.1687C48.7762 36.9029 49.2171 36.4946 49.5225 35.9903C49.8278 35.4861 49.9854 34.9061 49.9771 34.3167C49.9653 33.7267 49.7871 33.1522 49.4632 32.659C49.1392 32.1659 48.6826 31.7742 48.1458 31.5292H48.1438ZM47.3167 35.3042L39.2938 39.3146L35.2833 47.3375C35.2026 47.5104 35.0743 47.6566 34.9134 47.7592C34.7525 47.8618 34.5658 47.9164 34.375 47.9167C34.1724 47.9131 33.9746 47.8541 33.8031 47.7461C33.6316 47.6382 33.4929 47.4853 33.4021 47.3042L25.2208 29.3187C24.7729 28.0333 25.0167 26.7937 25.8958 25.9167C26.4792 25.3312 27.25 25.0146 28.0792 25.0146C28.4479 25.0146 28.8292 25.0771 29.2083 25.2083L47.2813 33.425C47.4601 33.5066 47.6121 33.6372 47.7198 33.8016C47.8276 33.966 47.8866 34.1576 47.8901 34.3541C47.8936 34.5506 47.8414 34.7441 47.7395 34.9122C47.6377 35.0804 47.4925 35.2162 47.3167 35.3042ZM25 0H24.9646C11.1958 0.01875 0 11.2271 0 25C0 38.7729 11.2146 50 25 50C25.3625 50 25.725 49.9917 26.0854 49.9771C26.3525 49.9532 26.6001 49.8275 26.777 49.626C26.9539 49.4245 27.0464 49.1626 27.0354 48.8947C27.0244 48.6268 26.9108 48.3734 26.718 48.187C26.5252 48.0007 26.2681 47.8957 26 47.8937C25.8077 47.9024 25.6154 47.908 25.4229 47.9104C24.2396 46.7229 19.7208 41.9312 16.9042 35.4146H19.7938C20.07 35.4146 20.335 35.3048 20.5303 35.1095C20.7257 34.9141 20.8354 34.6492 20.8354 34.3729C20.8354 34.0966 20.7257 33.8317 20.5303 33.6363C20.335 33.441 20.07 33.3312 19.7938 33.3312H16.0896C15.1792 30.7375 14.5854 27.9271 14.5854 24.9979C14.5854 22.0687 15.1792 19.2583 16.0917 16.6646H33.9188C34.2979 17.7437 34.6229 18.8625 34.8708 20.0083C34.9293 20.2783 35.0923 20.5141 35.3243 20.664C35.5563 20.814 35.8382 20.8659 36.1083 20.8083C36.3782 20.7499 36.6138 20.5868 36.7634 20.3547C36.913 20.1227 36.9644 19.8407 36.9063 19.5708C36.6926 18.5897 36.4305 17.6198 36.1208 16.6646H46.35C47.5125 19.6319 48.0398 22.81 47.8979 25.9937C47.8861 26.2697 47.9843 26.5391 48.1711 26.7427C48.3578 26.9462 48.6178 27.0673 48.8938 27.0792C49.0313 27.0891 49.1695 27.0708 49.2997 27.0255C49.43 26.9801 49.5496 26.9086 49.6513 26.8154C49.7529 26.7221 49.8344 26.6091 49.8908 26.4832C49.9472 26.3573 49.9773 26.2213 49.9792 26.0833C49.9958 25.7229 50.0021 25.3604 50.0021 24.9958C50 11.2146 38.7854 0 25 0ZM2.08333 25C2.08333 22.0625 2.63958 19.25 3.65208 16.6667H13.8708C13.0333 19.2625 12.5 22.0646 12.5 25C12.5 27.9354 13.0333 30.7375 13.8708 33.3333H3.65208C2.61253 30.6781 2.08041 27.8514 2.08333 25ZM14.6229 35.4167C16.8438 40.9771 20.2958 45.3854 22.4208 47.7708C14.6354 46.8958 8.01667 42.1042 4.58958 35.4167H14.6229ZM14.6229 14.5833H4.58958C8.01667 7.89583 14.6354 3.10417 22.4229 2.22917C20.2979 4.61458 16.8438 9.02292 14.6229 14.5833ZM16.9062 14.5833C19.4563 8.68958 23.4 4.2 25 2.52083C26.6042 4.20208 30.5521 8.69375 33.1 14.5833H16.9062ZM35.3646 14.5833C33.1396 9.01667 29.6938 4.6125 27.5729 2.22917C35.3604 3.10417 41.9792 7.89583 45.4083 14.5833H35.3646Z" fill="#E08322"/>
</g>
<defs>
<clipPath id="clip0_275_69">
<rect width="50" height="50" fill="white"/>
</clipPath>
</defs>
</svg>
